<svg width="16" height="16" viewBox="0 0 16 16" fill="none" xmlns="http://www.w3.org/2000/svg">
<g id="Apple">
<path id="Vector" d="M12.8001 11.0256C12.6022 11.4993 12.3593 11.9529 12.0745 12.38C11.6033 13.1 10.9393 13.9904 10.1153 13.9984C9.38407 14.0056 9.19607 13.5224 8.20327 13.528C7.21047 13.5336 7.00327 14.008 6.27207 14C5.44887 13.9928 4.81927 13.1856 4.34807 12.468C3.03047 10.4624 2.89207 8.108 3.70807 6.8568C3.95359 6.44831 4.29549 6.10622 4.70384 5.86048C5.1122 5.61474 5.57456 5.47284 6.05047 5.4472C6.92247 5.4472 7.47127 5.9272 8.19287 5.9272C8.89287 5.9272 9.31927 5.4472 10.3281 5.4472C10.7471 5.46622 11.1568 5.57755 11.5278 5.77323C11.8989 5.96892 12.2221 6.24412 12.4745 6.5792C12.0642 6.80632 11.7275 7.14621 11.5043 7.55865C11.2811 7.97109 11.1806 8.43884 11.2149 8.90655C11.2491 9.37427 11.4166 9.8224 11.6976 10.1979C11.9785 10.5734 12.3611 10.8607 12.8001 11.0256Z" stroke="#565E6C" stroke-width="0.8" stroke-linecap="round" stroke-linejoin="round"/>
<path id="Vector_2" d="M10.08 3.76C10.3266 3.46134 10.5112 3.11645 10.6229 2.74556C10.7346 2.37466 10.7711 1.9852 10.7304 1.6C9.93844 1.6938 9.21164 2.08465 8.69676 2.6936C8.44402 2.97819 8.25417 3.3129 8.13961 3.67587C8.02506 4.03883 7.98837 4.42189 8.03196 4.8C8.42934 4.79068 8.81958 4.69242 9.174 4.51245C9.52841 4.33247 9.83798 4.07535 10.08 3.76Z" fill="#565E6C"/>
</g>
</svg>
