<svg width="17" height="16" viewBox="0 0 17 16" fill="none" xmlns="http://www.w3.org/2000/svg">
<g id="Logo facebook">
<path id="Vector" d="M14.9001 8C14.8999 6.77697 14.5493 5.57961 13.8897 4.54966C13.2302 3.51971 12.2893 2.7003 11.1786 2.18845C10.0678 1.6766 8.83362 1.49374 7.62215 1.66151C6.41068 1.82929 5.27266 2.34067 4.34279 3.13513C3.41293 3.92958 2.73017 4.97384 2.37535 6.14426C2.02053 7.31469 2.00851 8.56228 2.3407 9.73933C2.67289 10.9164 3.33538 11.9736 4.24976 12.7858C5.16413 13.5981 6.29209 14.1313 7.5001 14.3224L7.5001 9.85H5.8753V8L7.5001 8L7.5001 6.59C7.5001 4.986 8.4557 4.1 9.9173 4.1C10.3973 4.10666 10.8762 4.14837 11.3501 4.2248V5.8H10.5429C10.4053 5.78173 10.2654 5.79465 10.1336 5.8378C10.0017 5.88095 9.8812 5.95322 9.78105 6.04926C9.6809 6.14531 9.60364 6.26265 9.55501 6.39261C9.50637 6.52257 9.48761 6.66181 9.5001 6.8V8H11.2753L10.9913 9.85H9.5001L9.5001 14.3224C11.0056 14.0842 12.3767 13.3166 13.3666 12.1575C14.3566 10.9985 14.9003 9.52424 14.9001 8Z" fill="#335CA6"/>
</g>
</svg>
