<svg width="20" height="20" viewBox="0 0 20 20" fill="none" xmlns="http://www.w3.org/2000/svg">
<g id="Bullet list 67 1">
<path id="Vector" d="M4 5.5C4.82843 5.5 5.5 4.82843 5.5 4C5.5 3.17157 4.82843 2.5 4 2.5C3.17157 2.5 2.5 3.17157 2.5 4C2.5 4.82843 3.17157 5.5 4 5.5Z" stroke="white" stroke-linecap="round" stroke-linejoin="round"/>
<path id="Vector_2" d="M4 11.5C4.82843 11.5 5.5 10.8284 5.5 10C5.5 9.17157 4.82843 8.5 4 8.5C3.17157 8.5 2.5 9.17157 2.5 10C2.5 10.8284 3.17157 11.5 4 11.5Z" stroke="white" stroke-linecap="round" stroke-linejoin="round"/>
<path id="Vector_3" d="M4 17.5C4.82843 17.5 5.5 16.8284 5.5 16C5.5 15.1716 4.82843 14.5 4 14.5C3.17157 14.5 2.5 15.1716 2.5 16C2.5 16.8284 3.17157 17.5 4 17.5Z" stroke="white" stroke-linecap="round" stroke-linejoin="round"/>
<path id="Vector_4" d="M8.5 4.5L17.5 4.5" stroke="white" stroke-linecap="round" stroke-linejoin="round"/>
<path id="Vector_5" d="M8.5 10.5L17.5 10.5" stroke="white" stroke-linecap="round" stroke-linejoin="round"/>
<path id="Vector_6" d="M8.5 16.5L17.5 16.5" stroke="white" stroke-linecap="round" stroke-linejoin="round"/>
</g>
</svg>
