<svg width="20" height="20" viewBox="0 0 20 20" fill="none" xmlns="http://www.w3.org/2000/svg">
<g id="Loading 2 1" clip-path="url(#clip0_5_1693)">
<path id="Vector" d="M10 2.5C9.30964 2.5 8.75 1.94036 8.75 1.25C8.75 0.559644 9.30964 0 10 0C10.6904 0 11.25 0.559644 11.25 1.25C11.25 1.94036 10.6904 2.5 10 2.5Z" fill="white"/>
<path id="Vector_2" d="M18.75 11.25C18.0596 11.25 17.5 10.6904 17.5 10C17.5 9.30964 18.0596 8.75 18.75 8.75C19.4404 8.75 20 9.30964 20 10C20 10.6904 19.4404 11.25 18.75 11.25Z" fill="white" fill-opacity="0.3"/>
<path id="Vector_3" d="M17.5 6.875C16.8096 6.875 16.25 6.31536 16.25 5.625C16.25 4.93464 16.8096 4.375 17.5 4.375C18.1904 4.375 18.75 4.93464 18.75 5.625C18.75 6.31536 18.1904 6.875 17.5 6.875Z" fill="white" fill-opacity="0.1"/>
<path id="Vector_4" d="M17.5 13.125C16.8096 13.125 16.25 13.6846 16.25 14.375C16.25 15.0654 16.8096 15.625 17.5 15.625C18.1904 15.625 18.75 15.0654 18.75 14.375C18.75 13.6846 18.1904 13.125 17.5 13.125Z" fill="white" fill-opacity="0.5"/>
<path id="Vector_5" d="M2.5 6.875C3.19036 6.875 3.75 6.31536 3.75 5.625C3.75 4.93464 3.19036 4.375 2.5 4.375C1.80964 4.375 1.25 4.93464 1.25 5.625C1.25 6.31536 1.80964 6.875 2.5 6.875Z" fill="white"/>
<path id="Vector_6" d="M2.5 13.125C3.19036 13.125 3.75 13.6846 3.75 14.375C3.75 15.0654 3.19036 15.625 2.5 15.625C1.80964 15.625 1.25 15.0654 1.25 14.375C1.25 13.6846 1.80964 13.125 2.5 13.125Z" fill="white"/>
<path id="Vector_7" d="M14.375 3.75C13.6846 3.75 13.125 3.19036 13.125 2.5C13.125 1.80964 13.6846 1.25 14.375 1.25C15.0654 1.25 15.625 1.80964 15.625 2.5C15.625 3.19036 15.0654 3.75 14.375 3.75Z" fill="white" fill-opacity="0.05"/>
<path id="Vector_8" d="M14.375 16.25C13.6846 16.25 13.125 16.8096 13.125 17.5C13.125 18.1904 13.6846 18.75 14.375 18.75C15.0654 18.75 15.625 18.1904 15.625 17.5C15.625 16.8096 15.0654 16.25 14.375 16.25Z" fill="white" fill-opacity="0.7"/>
<path id="Vector_9" d="M5.625 3.75C6.31536 3.75 6.875 3.19036 6.875 2.5C6.875 1.80964 6.31536 1.25 5.625 1.25C4.93464 1.25 4.375 1.80964 4.375 2.5C4.375 3.19036 4.93464 3.75 5.625 3.75Z" fill="white"/>
<path id="Vector_10" d="M5.625 16.25C6.31536 16.25 6.875 16.8096 6.875 17.5C6.875 18.1904 6.31536 18.75 5.625 18.75C4.93464 18.75 4.375 18.1904 4.375 17.5C4.375 16.8096 4.93464 16.25 5.625 16.25Z" fill="white"/>
<path id="Vector_11" d="M10 20C9.30964 20 8.75 19.4404 8.75 18.75C8.75 18.0596 9.30964 17.5 10 17.5C10.6904 17.5 11.25 18.0596 11.25 18.75C11.25 19.4404 10.6904 20 10 20Z" fill="white" fill-opacity="0.9"/>
<path id="Vector_12" d="M1.25 11.25C0.559644 11.25 0 10.6904 0 10C0 9.30964 0.559644 8.75 1.25 8.75C1.94036 8.75 2.5 9.30964 2.5 10C2.5 10.6904 1.94036 11.25 1.25 11.25Z" fill="white"/>
</g>
<defs>
<clipPath id="clip0_5_1693">
<rect width="20" height="20" fill="white"/>
</clipPath>
</defs>
</svg>
