<svg width="24" height="24" viewBox="0 0 24 24" fill="none" xmlns="http://www.w3.org/2000/svg">
<g id="Clipboard text">
<path id="Vector" d="M15.75 14.25C15.75 14.4489 15.671 14.6397 15.5303 14.7803C15.3897 14.921 15.1989 15 15 15L9 15C8.80109 15 8.61032 14.921 8.46967 14.7803C8.32902 14.6397 8.25 14.4489 8.25 14.25C8.25 14.0511 8.32902 13.8603 8.46967 13.7197C8.61032 13.579 8.80109 13.5 9 13.5L15 13.5C15.1989 13.5 15.3897 13.579 15.5303 13.7197C15.671 13.8603 15.75 14.0511 15.75 14.25ZM15 10.5L9 10.5C8.80109 10.5 8.61032 10.579 8.46967 10.7197C8.32902 10.8603 8.25 11.0511 8.25 11.25C8.25 11.4489 8.32902 11.6397 8.46967 11.7803C8.61032 11.921 8.80109 12 9 12L15 12C15.1989 12 15.3897 11.921 15.5303 11.7803C15.671 11.6397 15.75 11.4489 15.75 11.25C15.75 11.0511 15.671 10.8603 15.5303 10.7197C15.3897 10.579 15.1989 10.5 15 10.5ZM20.25 4.5L20.25 20.25C20.25 20.6478 20.092 21.0294 19.8107 21.3107C19.5294 21.592 19.1478 21.75 18.75 21.75L5.25 21.75C4.85218 21.75 4.47064 21.592 4.18934 21.3107C3.90804 21.0294 3.75 20.6478 3.75 20.25L3.75 4.5C3.75 4.10217 3.90804 3.72064 4.18934 3.43934C4.47064 3.15803 4.85218 3 5.25 3L8.64937 3C9.07079 2.52818 9.58709 2.15068 10.1645 1.89221C10.7419 1.63374 11.3674 1.50014 12 1.50014C12.6326 1.50014 13.2581 1.63374 13.8355 1.89221C14.4129 2.15068 14.9292 2.52818 15.3506 3L18.75 3C19.1478 3 19.5294 3.15803 19.8107 3.43934C20.092 3.72064 20.25 4.10217 20.25 4.5ZM9 6L15 6C15 5.20435 14.6839 4.44129 14.1213 3.87868C13.5587 3.31607 12.7956 3 12 3C11.2044 3 10.4413 3.31607 9.87868 3.87868C9.31607 4.44129 9 5.20435 9 6ZM18.75 4.5H16.2422C16.4128 4.9817 16.5 5.48898 16.5 6V6.75C16.5 6.94891 16.421 7.13968 16.2803 7.28033C16.1397 7.42098 15.9489 7.5 15.75 7.5L8.25 7.5C8.05109 7.5 7.86032 7.42098 7.71967 7.28033C7.57902 7.13968 7.5 6.94891 7.5 6.75L7.5 6C7.50002 5.48898 7.58721 4.9817 7.75781 4.5L5.25 4.5L5.25 20.25L18.75 20.25L18.75 4.5Z" fill="#565E6C"/>
</g>
</svg>
